<?xml version="1.0" encoding="utf-8"?>
<!-- Generator: Adobe Illustrator 25.4.1, SVG Export Plug-In . SVG Version: 6.00 Build 0)  -->
<svg version="1.1" id="レイヤー_1" xmlns="http://www.w3.org/2000/svg" xmlns:xlink="http://www.w3.org/1999/xlink" x="0px"
	 y="0px" viewBox="0 0 460 100" style="enable-background:new 0 0 460 100;" xml:space="preserve">
<style type="text/css">
	.st0{fill:#FFFFFF;}
</style>
<path class="st0" d="M65.4,36.2c-1.3-4.8-3.9-13.8-17.7-13.8c-8,0-19.8,5.3-19.8,27.9c0,14.3,5.7,27.2,19.8,27.2
	c9.2,0,15.7-5.2,17.7-15H82C78.7,79.9,67.4,92,47.4,92c-21.2,0-36.4-14.3-36.4-41.9C10.9,22.2,27,8,47.6,8C71.5,8,81.1,24.4,82,36.2
	H65.4z"/>
<path class="st0" d="M131.7,8c10.6,0,38.3,4.6,38.3,42s-27.8,42-38.3,42c-10.6,0-38.3-4.6-38.3-42S121.1,8,131.7,8z M131.7,77.9
	c9,0,21.7-5.6,21.7-27.9s-12.7-27.9-21.7-27.9c-9,0-21.7,5.6-21.7,27.9S122.7,77.9,131.7,77.9z"/>
<path class="st0" d="M197.8,89.9h-16.7V10.1h56.8v14.1h-40.1v18h35.1v14.1h-35.1L197.8,89.9L197.8,89.9z"/>
<path class="st0" d="M265.7,89.9H249V10.1h56.8v14.1h-40.1v18h35.1v14.1h-35.1V89.9z"/>
<path class="st0" d="M373.4,24.2H331V41h38.9v14.1H331v20.7h44.2v14.1h-60.6V10.1h58.7V24.2z"/>
<path class="st0" d="M447.5,24.2h-42.3V41h38.9v14.1h-38.9v20.7h44.2v14.1h-60.6V10.1h58.7V24.2z"/>
</svg>
